<?xml version="1.0" encoding="UTF-8"?><svg id="Layer_2" xmlns="http://www.w3.org/2000/svg" viewBox="0 0 43.61 43.69"><defs><style>.cls-1{fill:none;fill-rule:evenodd;stroke:#fff;stroke-miterlimit:10;stroke-width:1.14px;}</style></defs><g id="Isolation_Mode"><path class="cls-1" d="M20.81,42.89l-6.67-7.38c-.84-.93-.33-2.4.9-2.6.79-.13,1.56-.48,2.2-1.06,1.77-1.6,1.9-4.35.29-6.13-1.61-1.78-4.35-1.93-6.12-.32-.64.58-1.07,1.31-1.27,2.09-.32,1.2-1.83,1.56-2.67.64L.8,20.74l7.33-6.65c.92-.83.55-2.35-.65-2.68-.78-.21-1.51-.64-2.09-1.28-1.61-1.78-1.48-4.52.29-6.13,1.77-1.6,4.51-1.46,6.12.32.58.64.94,1.41,1.07,2.21.2,1.23,1.68,1.75,2.6.92L22.8.8l6.67,7.38c.84.93.33,2.4-.9,2.6-.79.13-1.56.48-2.2,1.06-1.77,1.6-1.9,4.35-.29,6.13,1.61,1.78,4.35,1.93,6.12.32.64-.58,1.07-1.31,1.27-2.09.32-1.2,1.83-1.57,2.67-.64l6.67,7.38-7.33,6.65c-.92.83-.55,2.35.65,2.68.78.21,1.51.64,2.09,1.28,1.61,1.78,1.48,4.52-.29,6.13-1.77,1.6-4.51,1.46-6.12-.32-.58-.64-.94-1.41-1.07-2.21-.2-1.23-1.68-1.75-2.6-.91l-7.33,6.65Z"/></g></svg>