<?xml version="1.0" encoding="UTF-8"?><svg id="Layer_2" xmlns="http://www.w3.org/2000/svg" viewBox="0 0 27.75 27.81"><defs><style>.cls-1{fill:none;fill-rule:evenodd;stroke:#80bd00;stroke-miterlimit:10;stroke-width:1.55px;}</style></defs><g id="Isolation_Mode"><path class="cls-1" d="M13.27,26.71l-4.06-4.49c-.51-.56-.2-1.46.55-1.58.48-.08.95-.29,1.34-.64,1.08-.98,1.16-2.65.18-3.73-.98-1.08-2.65-1.17-3.72-.2-.39.35-.65.8-.77,1.27-.19.73-1.12.95-1.63.39L1.09,13.23l4.46-4.05c.56-.51.34-1.43-.4-1.63-.47-.13-.92-.39-1.27-.78-.98-1.08-.9-2.75.18-3.73,1.08-.98,2.74-.89,3.72.2.35.39.57.86.65,1.34.12.75,1.02,1.07,1.58.56L14.48,1.1l4.06,4.49c.51.56.2,1.46-.55,1.58-.48.08-.95.29-1.34.64-1.08.98-1.16,2.65-.18,3.73.98,1.08,2.65,1.17,3.72.2.39-.35.65-.8.77-1.27.19-.73,1.12-.95,1.63-.39l4.06,4.49-4.46,4.05c-.56.51-.34,1.43.4,1.63.47.13.92.39,1.27.78.98,1.08.9,2.75-.18,3.73-1.08.98-2.74.89-3.72-.2-.35-.39-.57-.86-.65-1.34-.12-.75-1.02-1.06-1.58-.56l-4.46,4.05Z"/></g></svg>