<?xml version="1.0" encoding="UTF-8"?><svg id="Layer_2" xmlns="http://www.w3.org/2000/svg" viewBox="0 0 642.47 154.48"><defs><style>.cls-1{fill:#fff;fill-rule:evenodd;}.cls-2{fill:#65666c;}.cls-3{fill:#89bd25;}.cls-4{fill:#878787;}</style></defs><g id="_Layer_"><path class="cls-2" d="M128.41,99.66V8.52h16.23v91.14h-16.23Z"/><path class="cls-2" d="M227.75,99.66l-48.29-66.41v66.41h-16.23V8.52h16.65l47.31,64.63V8.52h16.23v91.14h-15.68Z"/><path class="cls-2" d="M265.21,74.51c6.38,6.7,16.37,12.57,29.28,12.57s18.59-6.42,18.59-12.43c0-8.2-9.85-10.66-21.09-13.53-15.12-3.69-32.88-8.06-32.88-27.33,0-15.03,13.46-26.65,33.72-26.65,14.43,0,26.09,4.51,34.69,12.71l-9.3,11.89c-7.22-7.11-17.07-10.38-26.78-10.38s-15.68,4.51-15.68,11.34,9.44,9.43,20.4,12.16c15.26,3.83,33.44,8.47,33.44,28.29,0,15.17-10.82,28.15-35.8,28.15-17.07,0-29.42-5.88-37.6-14.48l9.02-12.3Z"/><path class="cls-2" d="M343.47,99.66V8.52h16.23v91.14h-16.23Z"/><path class="cls-2" d="M422.83,7.01c18.04,0,29.83,8.47,37.32,18.99l-13.32,7.38c-4.86-6.83-13.6-12.16-24-12.16-18.31,0-31.91,13.8-31.91,32.93s13.6,33.07,31.91,33.07c9.44,0,17.76-4.37,21.92-8.2v-14.21h-27.61v-14.07h43.85v34.16c-9.16,9.97-22.06,16.53-38.16,16.53-26.78,0-48.56-18.72-48.56-47.28s21.78-47.14,48.56-47.14Z"/><path class="cls-2" d="M541.19,99.66v-39.76h-48.15v39.76h-16.23V8.52h16.23v37.3h48.15V8.52h16.23v91.14h-16.23Z"/><path class="cls-2" d="M598.21,99.66V22.59h-28.03v-14.07h72.29v14.07h-28.03v77.07h-16.23Z"/><path class="cls-3" d="M6.29,153.47v-17.55h5.97c1.76,0,4.71.24,6.97,2.42,2.05,1.97,2.45,4.5,2.45,6.39,0,2.31-.58,4.37-2.29,6.08-1.39,1.39-3.74,2.66-6.73,2.66h-6.37ZM10.85,149.6h.92c1.1,0,2.66-.11,3.84-1.26.58-.55,1.34-1.66,1.34-3.6,0-1.63-.5-3.03-1.37-3.84-1.08-1-2.5-1.1-3.63-1.1h-1.1v9.81Z"/><path class="cls-4" d="M40.07,140.1h-6.23v3.96h6.04v2.25h-6.04v4.92h6.23v2.25h-8.62v-15.62h8.62v2.25Z"/><path class="cls-4" d="M56,141.31c-.14-.35-.35-.68-.7-.98-.49-.4-1.01-.56-1.69-.56-1.45,0-2.2.87-2.2,1.87,0,.47.16,1.29,1.69,1.9l1.57.63c2.88,1.17,3.68,2.81,3.68,4.59,0,2.97-2.11,5.01-5.04,5.01-1.8,0-2.88-.68-3.68-1.57-.84-.94-1.22-1.97-1.31-3.04l2.37-.52c0,.77.28,1.5.66,1.99.44.56,1.1.94,2.04.94,1.45,0,2.58-1.05,2.58-2.62s-1.22-2.25-2.25-2.67l-1.5-.63c-1.29-.54-3.19-1.62-3.19-3.96,0-2.11,1.64-4.12,4.57-4.12,1.69,0,2.65.63,3.14,1.05.42.38.87.91,1.19,1.57l-1.92,1.12Z"/><path class="cls-4" d="M69.82,137.85v15.62h-2.39v-15.62h2.39Z"/><path class="cls-4" d="M87.74,145.34h6.44v.12c0,2.67-.8,4.85-2.32,6.32-1.62,1.57-3.54,1.99-5.32,1.99-2.27,0-3.89-.66-5.32-2.13-1.52-1.57-2.32-3.65-2.32-5.9,0-2.44.98-4.54,2.27-5.83,1.34-1.36,3.47-2.34,5.88-2.34,1.41,0,2.86.3,4.08.98,1.29.73,2.08,1.64,2.53,2.34l-1.9,1.33c-.47-.66-1.17-1.36-1.92-1.78-.87-.52-1.8-.68-2.76-.68-2.04,0-3.35.84-4.12,1.62-1.03,1.03-1.66,2.69-1.66,4.38,0,1.57.59,3.14,1.62,4.24,1.08,1.15,2.41,1.57,3.91,1.57,1.36,0,2.48-.4,3.49-1.38.87-.84,1.22-1.76,1.31-2.65h-3.89v-2.2Z"/><path class="cls-4" d="M103.27,153.47v-16.68l11.34,11.88v-10.82h2.39v16.58l-11.34-11.88v10.92h-2.39Z"/><path class="cls-4" d="M151.08,140.84c2.03,0,3.68,1.66,3.68,3.68s-1.66,3.68-3.68,3.68-3.68-1.66-3.68-3.68,1.66-3.68,3.68-3.68Z"/><path class="cls-3" d="M190.43,147.66v5.81h-4.55v-17.55h7.26c1.53,0,3.1.29,4.45,1.58,1.37,1.32,1.63,2.79,1.63,4.26,0,1.39-.18,3.03-1.55,4.37-1.37,1.34-3,1.53-4.37,1.53h-2.87ZM190.43,143.97h1.53c.47,0,1.37-.05,1.92-.55.55-.47.58-1.18.58-1.6,0-.47-.05-1.11-.53-1.58-.53-.55-1.37-.63-1.95-.63h-1.55v4.37Z"/><path class="cls-4" d="M211.29,137.85c1.9,0,3.12.23,4.12.91,1.71,1.15,1.85,3,1.85,3.68,0,2.25-1.38,3.89-3.47,4.36l4.87,6.68h-2.88l-4.47-6.39h-.42v6.39h-2.39v-15.62h2.79ZM210.89,145.02h.75c.66,0,3.33-.07,3.33-2.55,0-2.2-2.08-2.41-3.26-2.41h-.82v4.97Z"/><path class="cls-4" d="M242.61,145.67c0,4.59-3.44,8.1-8.13,8.1s-8.13-3.51-8.13-8.1,3.44-8.1,8.13-8.1,8.13,3.51,8.13,8.1ZM240.22,145.67c0-3.47-2.39-5.9-5.74-5.9s-5.74,2.44-5.74,5.9,2.39,5.9,5.74,5.9,5.74-2.44,5.74-5.9Z"/><path class="cls-4" d="M254.98,137.85c2.18,0,4.08.23,5.81,1.52,1.9,1.43,3,3.7,3,6.3s-1.08,4.85-3.14,6.3c-1.83,1.29-3.54,1.5-5.72,1.5h-3.23v-15.62h3.28ZM254.09,151.22h1.03c1.17,0,2.79-.09,4.15-1.1,1.08-.82,2.13-2.32,2.13-4.45s-.98-3.68-2.11-4.5c-1.36-.98-3.02-1.08-4.17-1.08h-1.03v11.12Z"/><path class="cls-4" d="M275.26,137.85v9.42c0,.84.02,1.87.49,2.69.47.8,1.52,1.62,2.9,1.62s2.44-.82,2.9-1.62c.47-.82.49-1.85.49-2.69v-9.42h2.39v10.05c0,1.24-.26,2.74-1.45,4.05-.82.89-2.2,1.83-4.33,1.83s-3.51-.94-4.33-1.83c-1.19-1.31-1.45-2.81-1.45-4.05v-10.05h2.39Z"/><path class="cls-4" d="M305.85,141.5c-1.73-1.57-3.35-1.73-4.24-1.73-3.4,0-5.69,2.51-5.69,5.95s2.39,5.86,5.72,5.86c1.87,0,3.33-.96,4.22-1.8v2.83c-1.57.94-3.21,1.17-4.29,1.17-2.83,0-4.61-1.29-5.53-2.16-1.83-1.71-2.51-3.7-2.51-5.9,0-2.88,1.19-4.87,2.51-6.11,1.62-1.52,3.49-2.04,5.65-2.04,1.43,0,2.81.26,4.17,1.12v2.81Z"/><path class="cls-4" d="M319.23,140.1v13.37h-2.39v-13.37h-3.58v-2.25h9.56v2.25h-3.58Z"/><path class="cls-4" d="M333.4,137.85v15.62h-2.39v-15.62h2.39Z"/><path class="cls-4" d="M358.74,145.67c0,4.59-3.44,8.1-8.13,8.1s-8.13-3.51-8.13-8.1,3.44-8.1,8.13-8.1,8.13,3.51,8.13,8.1ZM356.36,145.67c0-3.47-2.39-5.9-5.74-5.9s-5.74,2.44-5.74,5.9,2.39,5.9,5.74,5.9,5.74-2.44,5.74-5.9Z"/><path class="cls-4" d="M367.83,153.47v-16.68l11.34,11.88v-10.82h2.39v16.58l-11.34-11.88v10.92h-2.39Z"/><path class="cls-4" d="M415.65,140.84c2.03,0,3.68,1.66,3.68,3.68s-1.66,3.68-3.68,3.68-3.68-1.66-3.68-3.68,1.66-3.68,3.68-3.68Z"/><path class="cls-3" d="M461.15,150.52h-6.37l-1.18,2.95h-4.81l6.73-17.55h4.97l6.6,17.55h-4.87l-1.08-2.95ZM459.94,147.05l-1.97-5.68-1.92,5.68h3.89Z"/><path class="cls-4" d="M487.56,141.5c-1.73-1.57-3.35-1.73-4.24-1.73-3.4,0-5.69,2.51-5.69,5.95s2.39,5.86,5.71,5.86c1.87,0,3.33-.96,4.22-1.8v2.83c-1.57.94-3.21,1.17-4.29,1.17-2.83,0-4.61-1.29-5.53-2.16-1.83-1.71-2.51-3.7-2.51-5.9,0-2.88,1.19-4.87,2.51-6.11,1.62-1.52,3.49-2.04,5.64-2.04,1.43,0,2.81.26,4.17,1.12v2.81Z"/><path class="cls-4" d="M500.94,140.1v13.37h-2.39v-13.37h-3.58v-2.25h9.56v2.25h-3.58Z"/><path class="cls-4" d="M515.11,137.85v15.62h-2.39v-15.62h2.39Z"/><path class="cls-4" d="M525.75,137.85l4.36,10.89,4.36-10.89h2.58l-6.93,16.63-6.93-16.63h2.58Z"/><path class="cls-4" d="M553.2,149.7h-6.68l-1.71,3.77h-2.58l7.78-16.54,7.4,16.54h-2.58l-1.64-3.77ZM552.24,147.45l-2.32-5.29-2.41,5.29h4.73Z"/><path class="cls-4" d="M568.87,140.1v13.37h-2.39v-13.37h-3.58v-2.25h9.56v2.25h-3.58Z"/><path class="cls-4" d="M583.04,137.85v15.62h-2.39v-15.62h2.39Z"/><path class="cls-4" d="M608.38,145.67c0,4.59-3.44,8.1-8.13,8.1s-8.13-3.51-8.13-8.1,3.44-8.1,8.13-8.1,8.13,3.51,8.13,8.1ZM606,145.67c0-3.47-2.39-5.9-5.74-5.9s-5.74,2.44-5.74,5.9,2.39,5.9,5.74,5.9,5.74-2.44,5.74-5.9Z"/><path class="cls-4" d="M617.47,153.47v-16.68l11.34,11.88v-10.82h2.39v16.58l-11.34-11.88v10.92h-2.39Z"/></g><g id="Isolation_Mode"><path class="cls-3" d="M108.25,54.12c0,50.2-3.93,54.13-54.12,54.13S0,104.32,0,54.12,3.93,0,54.12,0s54.12,3.93,54.12,54.12Z"/><path class="cls-1" d="M51.92,100.7l-14.76-16.34c-1.85-2.05-.72-5.31,1.99-5.75,1.76-.28,3.45-1.06,4.87-2.34,3.92-3.55,4.21-9.63.64-13.57-3.56-3.94-9.63-4.26-13.54-.71-1.42,1.28-2.36,2.9-2.81,4.62-.71,2.66-4.06,3.46-5.91,1.42l-14.76-16.34,16.23-14.71c2.04-1.85,1.22-5.21-1.44-5.93-1.72-.47-3.33-1.42-4.62-2.84-3.56-3.94-3.27-10.02.64-13.57,3.92-3.55,9.98-3.23,13.54.71,1.29,1.42,2.07,3.13,2.36,4.89.45,2.72,3.71,3.87,5.75,2.03l16.23-14.71,14.76,16.33c1.85,2.05.72,5.31-1.99,5.75-1.76.28-3.45,1.06-4.87,2.34-3.92,3.55-4.21,9.62-.64,13.57,3.56,3.95,9.63,4.26,13.54.71,1.42-1.28,2.36-2.89,2.81-4.62.71-2.66,4.06-3.47,5.91-1.42l14.76,16.34-16.23,14.71c-2.04,1.85-1.22,5.21,1.44,5.93,1.72.47,3.34,1.42,4.62,2.84,3.56,3.94,3.28,10.02-.64,13.57-3.92,3.55-9.98,3.23-13.54-.71-1.29-1.42-2.07-3.13-2.36-4.89-.45-2.72-3.72-3.87-5.75-2.03l-16.23,14.71"/></g></svg>