<svg width="110" height="108" viewBox="0 0 110 108" fill="none" xmlns="http://www.w3.org/2000/svg">
<path d="M28.2431 107.085V0L54.1671 4.01773V103.056L28.2431 107.074V107.085ZM30.1158 2.17763V104.907L52.3161 101.467V5.61829L30.1158 2.17763ZM25.924 107.085L0 103.067V4.01773L25.924 0V107.074V107.085ZM1.86182 101.467L24.0622 104.907V2.17763L1.86182 5.61829V101.467ZM110 103.122H56.7693V4.06128H110V24.6181H82.7041V43.2042H108.454V62.5198H82.7041V82.0859H110V103.122ZM58.642 101.26H108.138V83.9477H80.8423V60.6471H106.592V45.0661H80.8423V22.7454H108.138V5.92316H58.642V101.26Z" fill="url(#paint0_linear_16_30)"/>
<mask id="mask0_16_30" style="mask-type:luminance" maskUnits="userSpaceOnUse" x="0" y="0" width="110" height="108">
<path d="M28.2431 107.085V0L54.1671 4.01773V103.056L28.2431 107.074V107.085ZM30.1158 2.17763V104.907L52.3161 101.467V5.61829L30.1158 2.17763ZM25.924 107.085L0 103.067V4.01773L25.924 0V107.074V107.085ZM1.86182 101.467L24.0622 104.907V2.17763L1.86182 5.61829V101.467ZM110 103.122H56.7693V4.06128H110V24.6181H82.7041V43.2042H108.454V62.5198H82.7041V82.0859H110V103.122ZM58.642 101.26H108.138V83.9477H80.8423V60.6471H106.592V45.0661H80.8423V22.7454H108.138V5.92316H58.642V101.26Z" fill="white"/>
</mask>
<g mask="url(#mask0_16_30)">
<path d="M130.295 33.3394C133.899 68.6823 89.313 112.115 53.971 115.719C18.629 119.323 -12.9458 93.6053 -16.5605 58.2515C-20.1644 22.9085 -0.500952 -13.7737 34.841 -17.3777C70.183 -20.9817 126.68 -2.01451 130.295 33.3394Z" fill="url(#paint1_linear_16_30)"/>
<path d="M122.739 56.8795C127.421 92.8431 92.623 131.725 56.6604 136.407C20.6978 141.089 -12.2597 115.73 -16.9415 79.7555C-21.6233 43.7919 0.707691 8.28559 36.6812 3.60368C72.6437 -1.07823 118.057 20.9159 122.739 56.8795Z" fill="url(#paint2_linear_16_30)"/>
<path d="M48.8538 157.889C85.8951 157.889 115.923 127.86 115.923 90.8179C115.923 53.7756 85.8951 23.7468 48.8538 23.7468C11.8125 23.7468 -18.2154 53.7756 -18.2154 90.8179C-18.2154 127.86 11.8125 157.889 48.8538 157.889Z" fill="url(#paint3_linear_16_30)"/>
<path d="M24.0404 195.987C60.312 195.987 89.7159 166.582 89.7159 130.309C89.7159 94.0366 60.312 64.6318 24.0404 64.6318C-12.2313 64.6318 -41.6352 94.0366 -41.6352 130.309C-41.6352 166.582 -12.2313 195.987 24.0404 195.987Z" fill="url(#paint4_linear_16_30)"/>
<path d="M-0.762207 234.128C34.7638 234.128 63.5632 205.328 63.5632 169.801C63.5632 134.274 34.7638 105.473 -0.762207 105.473C-36.2882 105.473 -65.0876 134.274 -65.0876 169.801C-65.0876 205.328 -36.2882 234.128 -0.762207 234.128Z" fill="url(#paint5_linear_16_30)"/>
</g>
<defs>
<linearGradient id="paint0_linear_16_30" x1="54.0255" y1="4.26816" x2="56.5734" y2="133.042" gradientUnits="userSpaceOnUse">
<stop stop-color="#00A7E7"/>
<stop offset="1" stop-color="#EC008C"/>
</linearGradient>
<linearGradient id="paint1_linear_16_30" x1="-16.9852" y1="49.1272" x2="130.502" y2="49.1272" gradientUnits="userSpaceOnUse">
<stop stop-color="#00A7E7"/>
<stop offset="1" stop-color="#EC008C"/>
</linearGradient>
<linearGradient id="paint2_linear_16_30" x1="-17.0695" y1="76.361" x2="124.214" y2="63.1306" gradientUnits="userSpaceOnUse">
<stop stop-color="#00A7E7"/>
<stop offset="1" stop-color="#EC008C"/>
</linearGradient>
<linearGradient id="paint3_linear_16_30" x1="-18.2154" y1="90.8179" x2="115.923" y2="90.8179" gradientUnits="userSpaceOnUse">
<stop stop-color="#00A7E7"/>
<stop offset="1" stop-color="#EC008C"/>
</linearGradient>
<linearGradient id="paint4_linear_16_30" x1="-41.3064" y1="124.847" x2="90.058" y2="137.149" gradientUnits="userSpaceOnUse">
<stop stop-color="#00A7E7"/>
<stop offset="1" stop-color="#EC008C"/>
</linearGradient>
<linearGradient id="paint5_linear_16_30" x1="-65.1094" y1="169.801" x2="63.585" y2="169.801" gradientUnits="userSpaceOnUse">
<stop stop-color="#00A7E7"/>
<stop offset="1" stop-color="#EC008C"/>
</linearGradient>
</defs>
</svg>
