<svg width="62" height="62" viewBox="0 0 62 62" fill="none" xmlns="http://www.w3.org/2000/svg">
<path d="M5.62695 45.3418L5.62696 16.2685L30.8047 1.73242L55.9824 16.2686L55.9824 45.3418L30.8047 59.8779L5.62695 45.3418Z" stroke="#F6F6F6" stroke-width="3"/>
<g clip-path="url(#clip0_17_266)">
<path d="M26.385 21.1534C26.385 21.4972 26.3136 21.8213 26.1691 22.1244C26.0246 22.4275 25.8288 22.6928 25.5787 22.9205C25.3285 23.1497 25.038 23.3306 24.7071 23.4648C24.3761 23.6005 24.0234 23.6668 23.649 23.6668C23.2746 23.6668 22.9436 23.599 22.6267 23.4648C22.3097 23.3306 22.0285 23.1482 21.7846 22.9205C21.5407 22.6928 21.348 22.4275 21.2082 22.1244C21.0684 21.8213 21 21.4987 21 21.1534C21 20.8081 21.0699 20.4689 21.2082 20.1613C21.348 19.8537 21.5391 19.5838 21.7846 19.3516C22.0301 19.1194 22.3097 18.937 22.6267 18.8073C22.9436 18.6777 23.2839 18.6113 23.649 18.6113C24.0141 18.6113 24.3761 18.6762 24.7071 18.8073C25.038 18.9385 25.3285 19.1194 25.5787 19.3516C25.8288 19.5838 26.0246 19.8552 26.1691 20.1613C26.3136 20.4689 26.385 20.7991 26.385 21.1534ZM25.8661 25.1203V39.6098H21.404V25.1203H25.8677H25.8661Z" fill="#F6F6F6"/>
<path d="M29.4659 39.6092V25.1197H32.2299C32.508 25.1197 32.7411 25.18 32.929 25.3006C33.1155 25.4212 33.2475 25.6037 33.3252 25.8449L33.5847 26.6832C33.8721 26.4224 34.1704 26.1796 34.4781 25.9565C34.7857 25.7333 35.1135 25.5449 35.4646 25.3911C35.8158 25.2373 36.1949 25.1167 36.6019 25.0277C37.0105 24.9387 37.4533 24.895 37.9334 24.895C38.7491 24.895 39.4716 25.0322 40.0992 25.3066C40.7285 25.581 41.2583 25.964 41.6902 26.4525C42.1221 26.941 42.4484 27.5245 42.669 28.2C42.8896 28.8755 43 29.6083 43 30.3998V39.6077H38.5362V30.3998C38.5362 29.6927 38.3685 29.1393 38.0313 28.7443C37.6957 28.3493 37.2016 28.1503 36.5491 28.1503C36.0597 28.1503 35.5983 28.2528 35.1663 28.4578C34.7344 28.6629 34.3211 28.9373 33.9281 29.2826V39.6092H29.4644H29.4659Z" fill="#F6F6F6"/>
</g>
<defs>
<clipPath id="clip0_17_266">
<rect width="22" height="21" fill="white" transform="translate(21 18.6094)"/>
</clipPath>
</defs>
</svg>
