<svg width="62" height="62" viewBox="0 0 62 62" fill="none" xmlns="http://www.w3.org/2000/svg">
<path d="M5.62708 45.3418L5.62708 16.2685L30.8048 1.73242L55.9825 16.2686L55.9825 45.3418L30.8048 59.8779L5.62708 45.3418Z" stroke="#F6F6F6" stroke-width="3"/>
<g clip-path="url(#clip0_17_265)">
<path d="M31.209 37.946C27.4946 37.946 24.4713 34.9245 24.4713 31.2084C24.4713 27.4923 27.4929 24.4707 31.209 24.4707C34.9251 24.4707 37.9466 27.4923 37.9466 31.2084C37.9466 34.9245 34.9251 37.946 31.209 37.946ZM31.209 26.7722C28.7628 26.7722 26.7728 28.7622 26.7728 31.2084C26.7728 33.6546 28.7628 35.6445 31.209 35.6445C33.6552 35.6445 35.6451 33.6546 35.6451 31.2084C35.6451 28.7622 33.6552 26.7722 31.209 26.7722Z" fill="#FFFBFD"/>
<path d="M36.7874 44.585H25.6306C21.3306 44.585 17.8341 41.0868 17.8341 36.7885V25.63C17.8341 21.3317 21.3323 17.8335 25.6306 17.8335H36.7874C41.0874 17.8335 44.5839 21.3317 44.5839 25.63V36.7868C44.5839 41.0868 41.0857 44.5833 36.7874 44.5833V44.585ZM25.6306 20.1333C22.6005 20.1333 20.1339 22.5999 20.1339 25.63V36.7868C20.1339 39.8169 22.6005 42.2835 25.6306 42.2835H36.7874C39.8192 42.2835 42.2841 39.8169 42.2841 36.7868V25.63C42.2841 22.5999 39.8192 20.1333 36.7874 20.1333H25.6306Z" fill="#FFFBFD"/>
<path d="M40.1818 24.0858C40.1818 25.0255 39.4209 25.7864 38.4812 25.7864C37.5416 25.7864 36.7806 25.0255 36.7806 24.0858C36.7806 23.1462 37.5416 22.3853 38.4812 22.3853C39.4209 22.3853 40.1818 23.1462 40.1818 24.0858Z" fill="#FFFBFD"/>
</g>
<defs>
<clipPath id="clip0_17_265">
<rect width="26.7515" height="26.7515" fill="white" transform="translate(17.8341 17.8335)"/>
</clipPath>
</defs>
</svg>
